<?xml version="1.0" encoding="UTF-8" standalone="no"?>
<svg width="75px" height="150px" viewBox="0 0 75 150" version="1.1" xmlns="http://www.w3.org/2000/svg" xmlns:xlink="http://www.w3.org/1999/xlink">
    <!-- Generator: Sketch 39.1 (31720) - http://www.bohemiancoding.com/sketch -->
    <title>attach</title>
    <desc>Created with Sketch.</desc>
    <defs></defs>
    <g id="Page-1" stroke="none" stroke-width="1" fill="none" fill-rule="evenodd">
        <path d="M30,25 L24.9960486,25 C22.2426503,25 20,27.2381453 20,29.9990375 L20,45.0009625 C20,47.7594154 22.2368071,50 24.9960486,50 L50.0039514,50 C52.7573497,50 55,47.7618547 55,45.0009625 L55,29.9990375 C55,27.2405846 52.7631929,25 50.0039514,25 L45,25 C45,22.2441952 42.7637596,20 40.0052172,20 L34.9947828,20 C32.2456516,20 30,22.2385763 30,25 L30,25 Z M37.5,45 C41.6421356,45 45,41.6421356 45,37.5 C45,33.3578644 41.6421356,30 37.5,30 C33.3578644,30 30,33.3578644 30,37.5 C30,41.6421356 33.3578644,45 37.5,45 L37.5,45 Z" id="normal" fill-opacity="0.2" fill="#000000"></path>
        <path d="M30,100 L24.9960486,100 C22.2426503,100 20,102.238145 20,104.999037 L20,120.000963 C20,122.759415 22.2368071,125 24.9960486,125 L50.0039514,125 C52.7573497,125 55,122.761855 55,120.000963 L55,104.999037 C55,102.240585 52.7631929,100 50.0039514,100 L45,100 C45,97.2441952 42.7637596,95 40.0052172,95 L34.9947828,95 C32.2456516,95 30,97.2385763 30,100 L30,100 Z M37.5,120 C41.6421356,120 45,116.642136 45,112.5 C45,108.357864 41.6421356,105 37.5,105 C33.3578644,105 30,108.357864 30,112.5 C30,116.642136 33.3578644,120 37.5,120 L37.5,120 Z" id="hover" fill="#011627"></path>
    </g>
</svg>