<?xml version="1.0" encoding="UTF-8"?>
<svg width="75px" height="225px" viewBox="0 0 75 225" version="1.1" xmlns="http://www.w3.org/2000/svg" xmlns:xlink="http://www.w3.org/1999/xlink">
    <!-- Generator: Sketch 43.2 (39069) - http://www.bohemiancoding.com/sketch -->
    <title>files</title>
    <desc>Created with Sketch.</desc>
    <defs></defs>
    <g id="Page-1" stroke="none" stroke-width="1" fill="none" fill-rule="evenodd">
        <g id="files">
            <g id="Upload-Hover" transform="translate(15.000000, 165.000000)" fill="#000000">
                <path d="M0.056844298,5.0093855 C0.0607768668,2.24277828 2.30179022,0 5.05773013,0 L30,0 L30,10.0052172 C30,12.7637596 32.2389617,15 34.9951583,15 L45.0639648,15 L45.0106703,39.9955644 C45.0047772,42.7594379 42.768443,45 39.9906145,45 L5.0093855,45 C2.24277828,45 0.00317202655,42.768443 0.00712054579,39.9906145 L0.056844298,5.0093855 Z" id="Rectangle-5" fill-opacity="0.5"></path>
                <path d="M30,0 L45,15 L34.9947828,15 C32.2362404,15 30,12.7543484 30,10.0052172 L30,0 Z" id="Rectangle-6" fill-opacity="0.75"></path>
                <path d="M15,30 L15,27.4937831 C15,26.1274379 13.8807119,25 12.5,25 C11.1096621,25 10,26.1165047 10,27.4937831 L10,30 L7.49378313,30 C6.12743795,30 5,31.1192881 5,32.5 C5,33.8903379 6.11650474,35 7.49378313,35 L10,35 L10,37.5062169 C10,38.8725621 11.1192881,40 12.5,40 C13.8903379,40 15,38.8834953 15,37.5062169 L15,35 L17.5062169,35 C18.8725621,35 20,33.8807119 20,32.5 C20,31.1096621 18.8834953,30 17.5062169,30 L15,30 Z" id="Combined-Shape" fill-opacity="0.5"></path>
            </g>
            <g id="Upload" transform="translate(15.000000, 90.000000)" fill="#000000">
                <path d="M0.056844298,5.0093855 C0.0607768668,2.24277828 2.30179022,0 5.05773013,0 L30,0 L30,10.0052172 C30,12.7637596 32.2389617,15 34.9951583,15 L45.0639648,15 L45.0106703,39.9955644 C45.0047772,42.7594379 42.768443,45 39.9906145,45 L5.0093855,45 C2.24277828,45 0.00317202655,42.768443 0.00712054579,39.9906145 L0.056844298,5.0093855 Z" id="Rectangle-5" fill-opacity="0.3"></path>
                <path d="M30,0 L45,15 L34.9947828,15 C32.2362404,15 30,12.7543484 30,10.0052172 L30,0 Z" id="Rectangle-6" fill-opacity="0.5"></path>
                <path d="M15,30 L15,27.4937831 C15,26.1274379 13.8807119,25 12.5,25 C11.1096621,25 10,26.1165047 10,27.4937831 L10,30 L7.49378313,30 C6.12743795,30 5,31.1192881 5,32.5 C5,33.8903379 6.11650474,35 7.49378313,35 L10,35 L10,37.5062169 C10,38.8725621 11.1192881,40 12.5,40 C13.8903379,40 15,38.8834953 15,37.5062169 L15,35 L17.5062169,35 C18.8725621,35 20,33.8807119 20,32.5 C20,31.1096621 18.8834953,30 17.5062169,30 L15,30 Z" id="Combined-Shape" fill-opacity="0.5"></path>
            </g>
            <g id="File" transform="translate(5.000000, 5.000000)">
                <path d="M0,4.99251164 C0,2.2352236 2.24553095,0 5.00003191,0 L50,0 L50,10.0052172 C50,12.7637596 52.2456516,15 54.9947828,15 L65,15 L65,59.9999681 C65,62.7614095 62.7625529,65 60.0074884,65 L4.99251164,65 C2.2352236,65 0,62.7625529 0,60.0074884 L0,4.99251164 Z" id="Rectangle-5" fill-opacity="0.9" fill="#FFFFFF"></path>
                <path d="M50,0 L57.5,7.5 L65,15 L54.9947828,15 C52.2362404,15 50,12.7543484 50,10.0052172 L50,0 Z" id="Rectangle-6" fill-opacity="0.5" fill="#000000"></path>
            </g>
        </g>
    </g>
</svg>