<?xml version="1.0" encoding="UTF-8" standalone="no"?>
<svg width="75px" height="300px" viewBox="0 0 75 300" version="1.1" xmlns="http://www.w3.org/2000/svg" xmlns:xlink="http://www.w3.org/1999/xlink">
    <!-- Generator: Sketch 39.1 (31720) - http://www.bohemiancoding.com/sketch -->
    <title>icons</title>
    <desc>Created with Sketch.</desc>
    <defs></defs>
    <g id="Page-1" stroke="none" stroke-width="1" fill="none" fill-rule="evenodd">
        <g id="icons">
            <path d="M30,27 L24.9960486,27 C22.2426503,27 20,29.238145 20,31.999037 L20,47.000963 C20,49.759415 22.2368071,52 24.9960486,52 L50.0039514,52 C52.7573497,52 55,49.761855 55,47.000963 L55,31.999037 C55,29.240585 52.7631929,27 50.0039514,27 L45,27 C45,24.2441952 42.7637596,22 40.0052172,22 L34.9947828,22 C32.2456516,22 30,24.2385763 30,27 L30,27 L30,27 Z M37.5,47 C41.6421356,47 45,43.642136 45,39.5 C45,35.357864 41.6421356,32 37.5,32 C33.3578644,32 30,35.357864 30,39.5 C30,43.642136 33.3578644,47 37.5,47 L37.5,47 L37.5,47 Z" id="camera" fill="#FF9F1C"></path>
            <g id="mask" transform="translate(20.000000, 90.000000)">
                <path d="M34.9929945,25 L35,25 L35,10.0064223 C35,4.46949899 30.5200859,0 24.9938319,0 L10.0061681,0 C4.46832468,0 0,4.48002787 0,10.0064223 L0,25 L0.00700546058,25 C0.00234552152,25.1660981 0,25.3327751 0,25.5 C0,35.1649831 7.83501688,43 17.5,43 C27.1649831,43 35,35.1649831 35,25.5 C35,25.3327751 34.9976545,25.1660981 34.9929945,25 L34.9929945,25 Z M15,15 C15,12.2385763 12.7614237,10 10,10 C7.23857625,10 5,12.2385763 5,15 L15,15 L15,15 Z M23,30 C23,32.7614237 20.5375661,35 17.5,35 C14.4624339,35 12,32.7614237 12,30 L23,30 L23,30 Z M30,15 C30,12.2385763 27.7614237,10 25,10 C22.2385763,10 20,12.2385763 20,15 L30,15 L30,15 Z" id="privacy" fill="#F92C89"></path>
                <path d="M20.0565457,24.2657695 C20.6400597,23.0144195 22.1351241,22.4765817 23.3767098,23.0555427 L27.9125507,25.17064 C29.1627126,25.7536001 29.7072057,27.231878 29.1196235,28.4919521 C28.5361095,29.743302 27.0410451,30.2811398 25.7994594,29.7021789 L21.2636185,27.5870816 C20.0134565,27.0041215 19.4689634,25.5258436 20.0565457,24.2657695 L20.0565457,24.2657695 Z M15.1196235,24.2657695 C14.5361095,23.0144195 13.0410451,22.4765817 11.7994594,23.0555427 L7.26361852,25.17064 C6.01345653,25.7536001 5.46896345,27.231878 6.05654565,28.4919521 C6.64005971,29.743302 8.13512412,30.2811398 9.37670983,29.7021789 L13.9125507,27.5870816 C15.1627126,27.0041215 15.7072057,25.5258436 15.1196235,24.2657695 L15.1196235,24.2657695 Z" id="privacy" fill-opacity="0.499433877" fill="#000000"></path>
            </g>
            <path d="M20,184.999037 C20,182.238145 22.2426503,180 24.9960486,180 L50.0039514,180 C52.7631929,180 55,182.240585 55,184.999037 L55,200.000963 C55,202.761855 52.7573497,205 50.0039514,205 L24.9960486,205 C22.2368071,205 20,202.759415 20,200.000963 L20,184.999037 L20,184.999037 Z M37.5,198 C40.5375661,198 43,195.537566 43,192.5 C43,189.462434 40.5375661,187 37.5,187 C34.4624339,187 32,189.462434 32,192.5 C32,195.537566 34.4624339,198 37.5,198 L37.5,198 Z M50,180 C49.9602051,174.148725 44.4035594,168 37.5,168 C30.5964406,168 25,173.148725 25,180 L50,180 L50,180 Z M45,180 C44.976123,176.586756 41.6421356,173 37.5,173 C33.3578644,173 30,176.003423 30,180 L45,180 L45,180 Z" id="lock" fill="#F45D01"></path>
            <path d="M20,254.999037 C20,252.238145 22.2426503,250 24.9960486,250 L50.0039514,250 C52.7631929,250 55,252.240585 55,254.999037 L55,270.000963 C55,272.761855 52.7573497,275 50.0039514,275 L24.9960486,275 C22.2368071,275 20,272.759415 20,270.000963 L20,254.999037 L20,254.999037 Z M25,275 L35,275 L25,280 L25,275 L25,275 Z" id="chat" fill="#2EC4B6"></path>
        </g>
    </g>
</svg>