<?xml version="1.0" encoding="UTF-8"?>
<svg width="75px" height="275px" viewBox="0 0 75 275" version="1.1" xmlns="http://www.w3.org/2000/svg" xmlns:xlink="http://www.w3.org/1999/xlink">
    <!-- Generator: Sketch 43.2 (39069) - http://www.bohemiancoding.com/sketch -->
    <title>ui</title>
    <desc>Created with Sketch.</desc>
    <defs></defs>
    <g id="Page-1" stroke="none" stroke-width="1" fill="none" fill-rule="evenodd">
        <g id="ui">
            <g id="Export-User" transform="translate(50.000000, 250.000000)" fill="#FFFFFF">
                <path d="M0,4.99903746 C0,2.23814531 2.24058456,0 4.99903746,0 L20.0009625,0 C22.7618547,0 25,2.24058456 25,4.99903746 L25,20.0009625 C25,22.7618547 22.7594154,25 20.0009625,25 L4.99903746,25 C2.23814531,25 0,22.7594154 0,20.0009625 L0,4.99903746 Z M6,17 C6,18.6534829 7.34260206,20 8.99878564,20 L16.0012144,20 C17.6577357,20 19,18.6568542 19,17 C19,15.3465171 17.6573979,14 16.0012144,14 L8.99878564,14 C7.34226429,14 6,15.3431458 6,17 Z M12.5,13 C14.4329966,13 16,11.4329966 16,9.5 C16,7.56700338 14.4329966,6 12.5,6 C10.5670034,6 9,7.56700338 9,9.5 C9,11.4329966 10.5670034,13 12.5,13 Z" id="Toggle"></path>
            </g>
            <g id="Settings" transform="translate(25.000000, 250.000000)" fill="#FFFFFF">
                <path d="M0,4.99903746 C0,2.23814531 2.24058456,0 4.99903746,0 L20.0009625,0 C22.7618547,0 25,2.24058456 25,4.99903746 L25,20.0009625 C25,22.7618547 22.7594154,25 20.0009625,25 L4.99903746,25 C2.23814531,25 0,22.7594154 0,20.0009625 L0,4.99903746 Z M5,12.5 C5,14.9802243 7.01494007,17 9.5004946,17 L15.4995054,17 C17.9770333,17 20,14.9852814 20,12.5 C20,10.0197757 17.9850599,8 15.4995054,8 L9.5004946,8 C7.02296674,8 5,10.0147186 5,12.5 Z M9.5,15 C8.11928813,15 7,13.8807119 7,12.5 C7,11.1192881 8.11928813,10 9.5,10 C10.8807119,10 12,11.1192881 12,12.5 C12,13.8807119 10.8807119,15 9.5,15 Z" id="Toggle"></path>
            </g>
            <g id="Less" transform="translate(0.000000, 250.000000)" fill="#FFFFFF">
                <path d="M0,4.99903746 C0,2.23814531 2.24058456,0 4.99903746,0 L20.0009625,0 C22.7618547,0 25,2.24058456 25,4.99903746 L25,20.0009625 C25,22.7618547 22.7594154,25 20.0009625,25 L4.99903746,25 C2.23814531,25 0,22.7594154 0,20.0009625 L0,4.99903746 Z M5,12.5 C5,13.8903379 6.11650474,15 7.49378313,15 L17.5062169,15 C18.8725621,15 20,13.8807119 20,12.5 C20,11.1096621 18.8834953,10 17.5062169,10 L7.49378313,10 C6.12743795,10 5,11.1192881 5,12.5 Z" id="Minus"></path>
            </g>
            <g id="Share" transform="translate(50.000000, 225.000000)" fill="#FFFFFF">
                <path d="M19,16 L19,15.5016756 C19,14.6711894 18.3284271,14 17.5,14 C16.6657972,14 16,14.6723231 16,15.5016756 L16,16 L15.5016756,16 C14.6711894,16 14,16.6715729 14,17.5 C14,18.3342028 14.6723231,19 15.5016756,19 L16,19 L16,19.4983244 C16,20.3288106 16.6715729,21 17.5,21 C18.3342028,21 19,20.3276769 19,19.4983244 L19,19 L19.4983244,19 C20.3288106,19 21,18.3284271 21,17.5 C21,16.6657972 20.3276769,16 19.4983244,16 L19,16 Z M0,4.99903746 C0,2.23814531 2.24058456,0 4.99903746,0 L20.0009625,0 C22.7618547,0 25,2.24058456 25,4.99903746 L25,20.0009625 C25,22.7618547 22.7594154,25 20.0009625,25 L4.99903746,25 C2.23814531,25 0,22.7594154 0,20.0009625 L0,4.99903746 Z M4,6.00591905 L4,8.99408095 C4,10.1134452 4.89808055,11 6.00591905,11 L8.99408095,11 C10.1134452,11 11,10.1019194 11,8.99408095 L11,6.00591905 C11,4.88655484 10.1019194,4 8.99408095,4 L6.00591905,4 C4.88655484,4 4,4.89808055 4,6.00591905 Z M4,16.0059191 L4,18.9940809 C4,20.1134452 4.89808055,21 6.00591905,21 L8.99408095,21 C10.1134452,21 11,20.1019194 11,18.9940809 L11,16.0059191 C11,14.8865548 10.1019194,14 8.99408095,14 L6.00591905,14 C4.88655484,14 4,14.8980806 4,16.0059191 Z M14,6.00591905 L14,8.99408095 C14,10.1134452 14.8980806,11 16.0059191,11 L18.9940809,11 C20.1134452,11 21,10.1019194 21,8.99408095 L21,6.00591905 C21,4.88655484 20.1019194,4 18.9940809,4 L16.0059191,4 C14.8865548,4 14,4.89808055 14,6.00591905 Z" id="QR-Code"></path>
            </g>
            <g id="Chat" transform="translate(25.000000, 225.000000)" fill="#FFFFFF">
                <path d="M11.75,17 L15.9913864,17 C18.7600656,17 21,14.7609319 21,11.9989013 L21,11.0010987 C21,8.23927286 18.7575673,6 15.9913864,6 L9.00861359,6 C6.23993443,6 4,8.23906814 4,11.0010987 L4,11.9989013 C4,14.4157801 5.7172621,16.4324862 8,16.8985498 L8,20 L11.75,17 Z M0,4.99903746 C0,2.23814531 2.24058456,0 4.99903746,0 L20.0009625,0 C22.7618547,0 25,2.24058456 25,4.99903746 L25,20.0009625 C25,22.7618547 22.7594154,25 20.0009625,25 L4.99903746,25 C2.23814531,25 0,22.7594154 0,20.0009625 L0,4.99903746 Z" id="Combined-Shape"></path>
            </g>
            <g id="More" transform="translate(0.000000, 225.000000)" fill="#FFFFFF">
                <path d="M15,10 L15,7.49378313 C15,6.12743795 13.8807119,5 12.5,5 C11.1096621,5 10,6.11650474 10,7.49378313 L10,10 L7.49378313,10 C6.12743795,10 5,11.1192881 5,12.5 C5,13.8903379 6.11650474,15 7.49378313,15 L10,15 L10,17.5062169 C10,18.8725621 11.1192881,20 12.5,20 C13.8903379,20 15,18.8834953 15,17.5062169 L15,15 L17.5062169,15 C18.8725621,15 20,13.8807119 20,12.5 C20,11.1096621 18.8834953,10 17.5062169,10 L15,10 Z M0,4.99903746 C0,2.23814531 2.24058456,0 4.99903746,0 L20.0009625,0 C22.7618547,0 25,2.24058456 25,4.99903746 L25,20.0009625 C25,22.7618547 22.7594154,25 20.0009625,25 L4.99903746,25 C2.23814531,25 0,22.7594154 0,20.0009625 L0,4.99903746 Z" id="Plus"></path>
            </g>
            <g id="Upload-Hover" transform="translate(15.000000, 165.000000)" fill="#000000">
                <path d="M0.0496662208,5.0093855 C0.0535938278,2.24277828 2.30400695,0 5.06107496,0 L29.9550418,0 L29.9550418,10.0052172 C29.9550418,12.7637596 32.1911785,15 34.964795,15 L45,15 L44.9467727,39.9955644 C44.9408871,42.7594379 42.7073745,45 39.9330509,45 L4.99595866,45 C2.23284215,45 -0.00393833083,42.768443 5.20645716e-06,39.9906145 L0.0496662208,5.0093855 Z" id="Rectangle-5" fill-opacity="0.5"></path>
                <path d="M30,0 L45,15 L34.9947828,15 C32.2362404,15 30,12.7543484 30,10.0052172 L30,0 Z" id="Rectangle-6" fill-opacity="0.75"></path>
                <path d="M15,30 L15,27.4937831 C15,26.1274379 13.8807119,25 12.5,25 C11.1096621,25 10,26.1165047 10,27.4937831 L10,30 L7.49378313,30 C6.12743795,30 5,31.1192881 5,32.5 C5,33.8903379 6.11650474,35 7.49378313,35 L10,35 L10,37.5062169 C10,38.8725621 11.1192881,40 12.5,40 C13.8903379,40 15,38.8834953 15,37.5062169 L15,35 L17.5062169,35 C18.8725621,35 20,33.8807119 20,32.5 C20,31.1096621 18.8834953,30 17.5062169,30 L15,30 Z" id="Combined-Shape" fill-opacity="0.5"></path>
            </g>
            <g id="Upload" transform="translate(15.000000, 90.000000)" fill="#000000">
                <path d="M0.0496662208,5.0093855 C0.0535938278,2.24277828 2.30400695,0 5.06107496,0 L29.9550418,0 L29.9550418,10.0052172 C29.9550418,12.7637596 32.1911785,15 34.964795,15 L45,15 L44.9467727,39.9955644 C44.9408871,42.7594379 42.7073745,45 39.9330509,45 L4.99595866,45 C2.23284215,45 -0.00393833083,42.768443 5.20645716e-06,39.9906145 L0.0496662208,5.0093855 Z" id="Rectangle-5" fill-opacity="0.3"></path>
                <path d="M30,0 L45,15 L34.9947828,15 C32.2362404,15 30,12.7543484 30,10.0052172 L30,0 Z" id="Rectangle-6" fill-opacity="0.5"></path>
                <path d="M15,30 L15,27.4937831 C15,26.1274379 13.8807119,25 12.5,25 C11.1096621,25 10,26.1165047 10,27.4937831 L10,30 L7.49378313,30 C6.12743795,30 5,31.1192881 5,32.5 C5,33.8903379 6.11650474,35 7.49378313,35 L10,35 L10,37.5062169 C10,38.8725621 11.1192881,40 12.5,40 C13.8903379,40 15,38.8834953 15,37.5062169 L15,35 L17.5062169,35 C18.8725621,35 20,33.8807119 20,32.5 C20,31.1096621 18.8834953,30 17.5062169,30 L15,30 Z" id="Combined-Shape" fill-opacity="0.5"></path>
            </g>
            <g id="File" transform="translate(5.000000, 5.000000)">
                <path d="M0,4.99251164 C0,2.2352236 2.24553095,0 5.00003191,0 L50,0 L50,10.0052172 C50,12.7637596 52.2456516,15 54.9947828,15 L65,15 L65,59.9999681 C65,62.7614095 62.7625529,65 60.0074884,65 L4.99251164,65 C2.2352236,65 0,62.7625529 0,60.0074884 L0,4.99251164 Z" id="Rectangle-5" fill-opacity="0.9" fill="#FFFFFF"></path>
                <path d="M50,0 L57.5,7.5 L65,15 L54.9947828,15 C52.2362404,15 50,12.7543484 50,10.0052172 L50,0 Z" id="Rectangle-6" fill-opacity="0.5" fill="#000000"></path>
            </g>
        </g>
    </g>
</svg>